<svg xmlns="http://www.w3.org/2000/svg" xmlns:xlink="http://www.w3.org/1999/xlink" width="1366" zoomAndPan="magnify" viewBox="0 0 1024.5 576" height="768" preserveAspectRatio="xMidYMid meet" version="1.0"><defs><g/></defs><g fill="#000000" fill-opacity="0.5098"><g transform="translate(126.949206, 372.223891)"><g><path d="M 77.484375 -92.59375 L 56.578125 -92.59375 L 56.578125 -20.5625 L 77.484375 -20.5625 L 77.484375 0 L 9.859375 0 L 9.859375 -20.5625 L 30.75 -20.5625 L 30.75 -92.59375 L 9.859375 -92.59375 L 9.859375 -112.984375 L 77.484375 -112.984375 Z M 77.484375 -92.59375 "/></g></g></g><g fill="#000000" fill-opacity="0.5098"><g transform="translate(214.282541, 372.223891)"><g><path d="M 94.46875 -112.984375 L 119.28125 -112.984375 L 119.28125 0 L 76.453125 0 L 41.125 -77.140625 C 39.875 -80.085938 38.707031 -83.003906 37.625 -85.890625 C 36.550781 -88.773438 35.5625 -91.632812 34.65625 -94.46875 L 34.65625 0 L 9.859375 0 L 9.859375 -112.984375 L 52.671875 -112.984375 L 88.34375 -34.65625 C 89.363281 -32.28125 90.410156 -29.703125 91.484375 -26.921875 C 92.566406 -24.148438 93.5625 -21.289062 94.46875 -18.34375 Z M 94.46875 -112.984375 "/></g></g></g><g fill="#000000" fill-opacity="0.5098"><g transform="translate(343.413562, 372.223891)"><g><path d="M 6.625 -37.203125 L 31.765625 -37.203125 C 32.109375 -31.203125 34.289062 -26.21875 38.3125 -22.25 C 42.332031 -18.289062 48.816406 -16.3125 57.765625 -16.3125 C 66.378906 -16.3125 72.328125 -17.671875 75.609375 -20.390625 C 78.890625 -23.109375 80.53125 -26.734375 80.53125 -31.265625 C 80.53125 -39.421875 75.488281 -44.175781 65.40625 -45.53125 L 40.4375 -48.765625 C 30.46875 -50.003906 22.765625 -53.34375 17.328125 -58.78125 C 11.890625 -64.21875 9.171875 -71.582031 9.171875 -80.875 C 9.171875 -91.070312 13.050781 -99.453125 20.8125 -106.015625 C 28.570312 -112.585938 40.378906 -115.875 56.234375 -115.875 C 67.566406 -115.875 76.742188 -114.226562 83.765625 -110.9375 C 90.785156 -107.65625 96.019531 -103.269531 99.46875 -97.78125 C 102.925781 -92.289062 104.882812 -86.203125 105.34375 -79.515625 L 80.03125 -79.515625 C 79.34375 -84.835938 77.070312 -89.054688 73.21875 -92.171875 C 69.375 -95.285156 63.710938 -96.84375 56.234375 -96.84375 C 49.328125 -96.84375 44.085938 -95.539062 40.515625 -92.9375 C 36.953125 -90.332031 35.171875 -86.820312 35.171875 -82.40625 C 35.171875 -79.125 36.21875 -76.347656 38.3125 -74.078125 C 40.40625 -71.816406 43.773438 -70.398438 48.421875 -69.828125 L 72.046875 -66.9375 C 95.035156 -64.332031 106.53125 -53.289062 106.53125 -33.8125 C 106.53125 -26.445312 104.882812 -19.988281 101.59375 -14.4375 C 98.3125 -8.882812 93.070312 -4.609375 85.875 -1.609375 C 78.6875 1.390625 69.203125 2.890625 57.421875 2.890625 C 48.140625 2.890625 40.296875 1.785156 33.890625 -0.421875 C 27.492188 -2.628906 22.34375 -5.628906 18.4375 -9.421875 C 14.53125 -13.222656 11.640625 -17.53125 9.765625 -22.34375 C 7.898438 -27.15625 6.851562 -32.109375 6.625 -37.203125 Z M 6.625 -37.203125 "/></g></g></g><g fill="#000000" fill-opacity="0.5098"><g transform="translate(456.912921, 372.223891)"><g><path d="M 69.828125 -112.984375 C 78.441406 -112.984375 85.351562 -111.34375 90.5625 -108.0625 C 95.769531 -104.78125 99.59375 -100.390625 102.03125 -94.890625 C 104.46875 -89.398438 105.6875 -83.367188 105.6875 -76.796875 C 105.6875 -69.890625 104.46875 -63.601562 102.03125 -57.9375 C 99.59375 -52.269531 95.769531 -47.765625 90.5625 -44.421875 C 85.351562 -41.085938 78.441406 -39.421875 69.828125 -39.421875 L 35.84375 -39.421875 L 35.84375 0 L 9.859375 0 L 9.859375 -112.984375 Z M 61.671875 -59.46875 C 68.015625 -59.46875 72.460938 -61.109375 75.015625 -64.390625 C 77.566406 -67.679688 78.84375 -71.757812 78.84375 -76.625 C 78.84375 -81.382812 77.59375 -85.289062 75.09375 -88.34375 C 72.601562 -91.40625 68.1875 -92.9375 61.84375 -92.9375 L 35.84375 -92.9375 L 35.84375 -59.46875 Z M 61.671875 -59.46875 "/></g></g></g><g fill="#000000" fill-opacity="0.5098"><g transform="translate(567.693712, 372.223891)"><g><path d="M 77.484375 -92.59375 L 56.578125 -92.59375 L 56.578125 -20.5625 L 77.484375 -20.5625 L 77.484375 0 L 9.859375 0 L 9.859375 -20.5625 L 30.75 -20.5625 L 30.75 -92.59375 L 9.859375 -92.59375 L 9.859375 -112.984375 L 77.484375 -112.984375 Z M 77.484375 -92.59375 "/></g></g></g><g fill="#000000" fill-opacity="0.5098"><g transform="translate(655.027048, 372.223891)"><g><path d="M 103.8125 -27.53125 L 103.8125 -19.875 C 103.8125 -15.226562 104.035156 -11.429688 104.484375 -8.484375 C 104.941406 -5.546875 105.453125 -2.71875 106.015625 0 L 80.203125 0 C 79.515625 -2.039062 78.972656 -4.644531 78.578125 -7.8125 C 78.179688 -10.988281 77.984375 -14.898438 77.984375 -19.546875 L 77.984375 -25.484375 C 77.984375 -31.828125 76.253906 -36.441406 72.796875 -39.328125 C 69.347656 -42.222656 64.789062 -43.671875 59.125 -43.671875 L 35.84375 -43.671875 L 35.84375 0 L 9.859375 0 L 9.859375 -112.984375 L 69.484375 -112.984375 C 81.953125 -112.984375 91.300781 -110.125 97.53125 -104.40625 C 103.757812 -98.6875 106.875 -91.238281 106.875 -82.0625 C 106.875 -74.132812 104.609375 -67.59375 100.078125 -62.4375 C 95.546875 -57.28125 89.9375 -53.96875 83.25 -52.5 C 87.101562 -51.59375 90.585938 -50.203125 93.703125 -48.328125 C 96.816406 -46.460938 99.28125 -43.890625 101.09375 -40.609375 C 102.90625 -37.328125 103.8125 -32.96875 103.8125 -27.53125 Z M 63.71875 -62.1875 C 69.601562 -62.1875 73.765625 -63.570312 76.203125 -66.34375 C 78.640625 -69.125 79.859375 -73.117188 79.859375 -78.328125 C 79.859375 -83.085938 78.582031 -86.710938 76.03125 -89.203125 C 73.476562 -91.691406 69.375 -92.9375 63.71875 -92.9375 L 35.84375 -92.9375 L 35.84375 -62.1875 Z M 63.71875 -62.1875 "/></g></g></g><g fill="#000000" fill-opacity="0.5098"><g transform="translate(769.71576, 372.223891)"><g><path d="M 35.6875 -20.5625 L 99.0625 -20.5625 L 99.0625 0 L 9.859375 0 L 9.859375 -112.984375 L 98.546875 -112.984375 L 98.546875 -92.59375 L 35.6875 -92.59375 L 35.6875 -67.28125 L 93.453125 -67.28125 L 93.453125 -48.078125 L 35.6875 -48.078125 Z M 35.6875 -20.5625 "/></g></g></g><g fill="#000000" fill-opacity="1"><g transform="translate(136.834697, 370.834578)"><g><path d="M 77.484375 -92.59375 L 56.578125 -92.59375 L 56.578125 -20.5625 L 77.484375 -20.5625 L 77.484375 0 L 9.859375 0 L 9.859375 -20.5625 L 30.75 -20.5625 L 30.75 -92.59375 L 9.859375 -92.59375 L 9.859375 -112.984375 L 77.484375 -112.984375 Z M 77.484375 -92.59375 "/></g></g></g><g fill="#000000" fill-opacity="1"><g transform="translate(224.168032, 370.834578)"><g><path d="M 94.46875 -112.984375 L 119.28125 -112.984375 L 119.28125 0 L 76.453125 0 L 41.125 -77.140625 C 39.875 -80.085938 38.707031 -83.003906 37.625 -85.890625 C 36.550781 -88.773438 35.5625 -91.632812 34.65625 -94.46875 L 34.65625 0 L 9.859375 0 L 9.859375 -112.984375 L 52.671875 -112.984375 L 88.34375 -34.65625 C 89.363281 -32.28125 90.410156 -29.703125 91.484375 -26.921875 C 92.566406 -24.148438 93.5625 -21.289062 94.46875 -18.34375 Z M 94.46875 -112.984375 "/></g></g></g><g fill="#000000" fill-opacity="1"><g transform="translate(353.299053, 370.834578)"><g><path d="M 6.625 -37.203125 L 31.765625 -37.203125 C 32.109375 -31.203125 34.289062 -26.21875 38.3125 -22.25 C 42.332031 -18.289062 48.816406 -16.3125 57.765625 -16.3125 C 66.378906 -16.3125 72.328125 -17.671875 75.609375 -20.390625 C 78.890625 -23.109375 80.53125 -26.734375 80.53125 -31.265625 C 80.53125 -39.421875 75.488281 -44.175781 65.40625 -45.53125 L 40.4375 -48.765625 C 30.46875 -50.003906 22.765625 -53.34375 17.328125 -58.78125 C 11.890625 -64.21875 9.171875 -71.582031 9.171875 -80.875 C 9.171875 -91.070312 13.050781 -99.453125 20.8125 -106.015625 C 28.570312 -112.585938 40.378906 -115.875 56.234375 -115.875 C 67.566406 -115.875 76.742188 -114.226562 83.765625 -110.9375 C 90.785156 -107.65625 96.019531 -103.269531 99.46875 -97.78125 C 102.925781 -92.289062 104.882812 -86.203125 105.34375 -79.515625 L 80.03125 -79.515625 C 79.34375 -84.835938 77.070312 -89.054688 73.21875 -92.171875 C 69.375 -95.285156 63.710938 -96.84375 56.234375 -96.84375 C 49.328125 -96.84375 44.085938 -95.539062 40.515625 -92.9375 C 36.953125 -90.332031 35.171875 -86.820312 35.171875 -82.40625 C 35.171875 -79.125 36.21875 -76.347656 38.3125 -74.078125 C 40.40625 -71.816406 43.773438 -70.398438 48.421875 -69.828125 L 72.046875 -66.9375 C 95.035156 -64.332031 106.53125 -53.289062 106.53125 -33.8125 C 106.53125 -26.445312 104.882812 -19.988281 101.59375 -14.4375 C 98.3125 -8.882812 93.070312 -4.609375 85.875 -1.609375 C 78.6875 1.390625 69.203125 2.890625 57.421875 2.890625 C 48.140625 2.890625 40.296875 1.785156 33.890625 -0.421875 C 27.492188 -2.628906 22.34375 -5.628906 18.4375 -9.421875 C 14.53125 -13.222656 11.640625 -17.53125 9.765625 -22.34375 C 7.898438 -27.15625 6.851562 -32.109375 6.625 -37.203125 Z M 6.625 -37.203125 "/></g></g></g><g fill="#000000" fill-opacity="1"><g transform="translate(466.798412, 370.834578)"><g><path d="M 69.828125 -112.984375 C 78.441406 -112.984375 85.351562 -111.34375 90.5625 -108.0625 C 95.769531 -104.78125 99.59375 -100.390625 102.03125 -94.890625 C 104.46875 -89.398438 105.6875 -83.367188 105.6875 -76.796875 C 105.6875 -69.890625 104.46875 -63.601562 102.03125 -57.9375 C 99.59375 -52.269531 95.769531 -47.765625 90.5625 -44.421875 C 85.351562 -41.085938 78.441406 -39.421875 69.828125 -39.421875 L 35.84375 -39.421875 L 35.84375 0 L 9.859375 0 L 9.859375 -112.984375 Z M 61.671875 -59.46875 C 68.015625 -59.46875 72.460938 -61.109375 75.015625 -64.390625 C 77.566406 -67.679688 78.84375 -71.757812 78.84375 -76.625 C 78.84375 -81.382812 77.59375 -85.289062 75.09375 -88.34375 C 72.601562 -91.40625 68.1875 -92.9375 61.84375 -92.9375 L 35.84375 -92.9375 L 35.84375 -59.46875 Z M 61.671875 -59.46875 "/></g></g></g><g fill="#000000" fill-opacity="1"><g transform="translate(577.579204, 370.834578)"><g><path d="M 77.484375 -92.59375 L 56.578125 -92.59375 L 56.578125 -20.5625 L 77.484375 -20.5625 L 77.484375 0 L 9.859375 0 L 9.859375 -20.5625 L 30.75 -20.5625 L 30.75 -92.59375 L 9.859375 -92.59375 L 9.859375 -112.984375 L 77.484375 -112.984375 Z M 77.484375 -92.59375 "/></g></g></g><g fill="#000000" fill-opacity="1"><g transform="translate(664.912539, 370.834578)"><g><path d="M 103.8125 -27.53125 L 103.8125 -19.875 C 103.8125 -15.226562 104.035156 -11.429688 104.484375 -8.484375 C 104.941406 -5.546875 105.453125 -2.71875 106.015625 0 L 80.203125 0 C 79.515625 -2.039062 78.972656 -4.644531 78.578125 -7.8125 C 78.179688 -10.988281 77.984375 -14.898438 77.984375 -19.546875 L 77.984375 -25.484375 C 77.984375 -31.828125 76.253906 -36.441406 72.796875 -39.328125 C 69.347656 -42.222656 64.789062 -43.671875 59.125 -43.671875 L 35.84375 -43.671875 L 35.84375 0 L 9.859375 0 L 9.859375 -112.984375 L 69.484375 -112.984375 C 81.953125 -112.984375 91.300781 -110.125 97.53125 -104.40625 C 103.757812 -98.6875 106.875 -91.238281 106.875 -82.0625 C 106.875 -74.132812 104.609375 -67.59375 100.078125 -62.4375 C 95.546875 -57.28125 89.9375 -53.96875 83.25 -52.5 C 87.101562 -51.59375 90.585938 -50.203125 93.703125 -48.328125 C 96.816406 -46.460938 99.28125 -43.890625 101.09375 -40.609375 C 102.90625 -37.328125 103.8125 -32.96875 103.8125 -27.53125 Z M 63.71875 -62.1875 C 69.601562 -62.1875 73.765625 -63.570312 76.203125 -66.34375 C 78.640625 -69.125 79.859375 -73.117188 79.859375 -78.328125 C 79.859375 -83.085938 78.582031 -86.710938 76.03125 -89.203125 C 73.476562 -91.691406 69.375 -92.9375 63.71875 -92.9375 L 35.84375 -92.9375 L 35.84375 -62.1875 Z M 63.71875 -62.1875 "/></g></g></g><g fill="#000000" fill-opacity="1"><g transform="translate(779.601251, 370.834578)"><g><path d="M 35.6875 -20.5625 L 99.0625 -20.5625 L 99.0625 0 L 9.859375 0 L 9.859375 -112.984375 L 98.546875 -112.984375 L 98.546875 -92.59375 L 35.6875 -92.59375 L 35.6875 -67.28125 L 93.453125 -67.28125 L 93.453125 -48.078125 L 35.6875 -48.078125 Z M 35.6875 -20.5625 "/></g></g></g></svg>