<svg xmlns="http://www.w3.org/2000/svg" xmlns:xlink="http://www.w3.org/1999/xlink" width="1366" zoomAndPan="magnify" viewBox="0 0 1024.5 576" height="768" preserveAspectRatio="xMidYMid meet" version="1.0"><defs><g/></defs><g fill="#000000" fill-opacity="0.5098"><g transform="translate(64.757319, 372.223891)"><g><path d="M 66.765625 2.890625 C 56.117188 2.890625 47.054688 1.304688 39.578125 -1.859375 C 32.109375 -5.035156 26.019531 -9.367188 21.3125 -14.859375 C 16.613281 -20.359375 13.160156 -26.675781 10.953125 -33.8125 C 8.742188 -40.945312 7.640625 -48.476562 7.640625 -56.40625 C 7.640625 -64.21875 8.742188 -71.691406 10.953125 -78.828125 C 13.160156 -85.972656 16.613281 -92.316406 21.3125 -97.859375 C 26.019531 -103.410156 32.140625 -107.800781 39.671875 -111.03125 C 47.203125 -114.257812 56.289062 -115.875 66.9375 -115.875 C 79.96875 -115.875 90.53125 -114.085938 98.625 -110.515625 C 106.726562 -106.953125 112.816406 -101.660156 116.890625 -94.640625 C 120.972656 -87.617188 123.410156 -78.953125 124.203125 -68.640625 L 97.703125 -68.640625 C 96.898438 -77.023438 94.234375 -83.484375 89.703125 -88.015625 C 85.179688 -92.546875 77.707031 -94.8125 67.28125 -94.8125 C 55.957031 -94.8125 47.6875 -91.582031 42.46875 -85.125 C 37.257812 -78.664062 34.65625 -69.09375 34.65625 -56.40625 C 34.65625 -43.945312 37.117188 -34.488281 42.046875 -28.03125 C 46.972656 -21.570312 55.101562 -18.34375 66.4375 -18.34375 C 77.3125 -18.34375 85.125 -20.691406 89.875 -25.390625 C 94.632812 -30.097656 97.351562 -36.867188 98.03125 -45.703125 L 124.71875 -45.703125 C 123.914062 -34.828125 121.503906 -25.789062 117.484375 -18.59375 C 113.460938 -11.40625 107.347656 -6.023438 99.140625 -2.453125 C 90.929688 1.109375 80.140625 2.890625 66.765625 2.890625 Z M 66.765625 2.890625 "/></g></g></g><g fill="#000000" fill-opacity="0.5098"><g transform="translate(196.267056, 372.223891)"><g><path d="M 67.28125 2.890625 C 56.40625 2.890625 47.171875 1.273438 39.578125 -1.953125 C 31.992188 -5.179688 25.851562 -9.539062 21.15625 -15.03125 C 16.457031 -20.53125 13.03125 -26.847656 10.875 -33.984375 C 8.71875 -41.117188 7.640625 -48.59375 7.640625 -56.40625 C 7.640625 -64.113281 8.71875 -71.503906 10.875 -78.578125 C 13.03125 -85.660156 16.457031 -92.003906 21.15625 -97.609375 C 25.851562 -103.210938 31.992188 -107.65625 39.578125 -110.9375 C 47.171875 -114.226562 56.40625 -115.875 67.28125 -115.875 C 78.15625 -115.875 87.359375 -114.226562 94.890625 -110.9375 C 102.421875 -107.65625 108.535156 -103.210938 113.234375 -97.609375 C 117.941406 -92.003906 121.367188 -85.660156 123.515625 -78.578125 C 125.671875 -71.503906 126.75 -64.113281 126.75 -56.40625 C 126.75 -48.59375 125.671875 -41.144531 123.515625 -34.0625 C 121.367188 -26.988281 117.941406 -20.675781 113.234375 -15.125 C 108.535156 -9.570312 102.421875 -5.179688 94.890625 -1.953125 C 87.359375 1.273438 78.15625 2.890625 67.28125 2.890625 Z M 34.65625 -56.40625 C 34.65625 -48.25 35.644531 -41.335938 37.625 -35.671875 C 39.613281 -30.015625 42.984375 -25.710938 47.734375 -22.765625 C 52.492188 -19.816406 59.007812 -18.34375 67.28125 -18.34375 C 75.550781 -18.34375 82.0625 -19.816406 86.8125 -22.765625 C 91.570312 -25.710938 94.941406 -30.015625 96.921875 -35.671875 C 98.910156 -41.335938 99.90625 -48.25 99.90625 -56.40625 C 99.90625 -64.789062 98.910156 -71.8125 96.921875 -77.46875 C 94.941406 -83.132812 91.570312 -87.441406 86.8125 -90.390625 C 82.0625 -93.335938 75.550781 -94.8125 67.28125 -94.8125 C 59.007812 -94.8125 52.492188 -93.335938 47.734375 -90.390625 C 42.984375 -87.441406 39.613281 -83.132812 37.625 -77.46875 C 35.644531 -71.8125 34.65625 -64.789062 34.65625 -56.40625 Z M 34.65625 -56.40625 "/></g></g></g><g fill="#000000" fill-opacity="0.5098"><g transform="translate(330.665246, 372.223891)"><g><path d="M 94.46875 -112.984375 L 119.28125 -112.984375 L 119.28125 0 L 76.453125 0 L 41.125 -77.140625 C 39.875 -80.085938 38.707031 -83.003906 37.625 -85.890625 C 36.550781 -88.773438 35.5625 -91.632812 34.65625 -94.46875 L 34.65625 0 L 9.859375 0 L 9.859375 -112.984375 L 52.671875 -112.984375 L 88.34375 -34.65625 C 89.363281 -32.28125 90.410156 -29.703125 91.484375 -26.921875 C 92.566406 -24.148438 93.5625 -21.289062 94.46875 -18.34375 Z M 94.46875 -112.984375 "/></g></g></g><g fill="#000000" fill-opacity="0.5098"><g transform="translate(459.796244, 372.223891)"><g><path d="M 94.46875 -112.984375 L 119.28125 -112.984375 L 119.28125 0 L 76.453125 0 L 41.125 -77.140625 C 39.875 -80.085938 38.707031 -83.003906 37.625 -85.890625 C 36.550781 -88.773438 35.5625 -91.632812 34.65625 -94.46875 L 34.65625 0 L 9.859375 0 L 9.859375 -112.984375 L 52.671875 -112.984375 L 88.34375 -34.65625 C 89.363281 -32.28125 90.410156 -29.703125 91.484375 -26.921875 C 92.566406 -24.148438 93.5625 -21.289062 94.46875 -18.34375 Z M 94.46875 -112.984375 "/></g></g></g><g fill="#000000" fill-opacity="0.5098"><g transform="translate(588.927265, 372.223891)"><g><path d="M 35.6875 -20.5625 L 99.0625 -20.5625 L 99.0625 0 L 9.859375 0 L 9.859375 -112.984375 L 98.546875 -112.984375 L 98.546875 -92.59375 L 35.6875 -92.59375 L 35.6875 -67.28125 L 93.453125 -67.28125 L 93.453125 -48.078125 L 35.6875 -48.078125 Z M 35.6875 -20.5625 "/></g></g></g><g fill="#000000" fill-opacity="0.5098"><g transform="translate(696.479812, 372.223891)"><g><path d="M 66.765625 2.890625 C 56.117188 2.890625 47.054688 1.304688 39.578125 -1.859375 C 32.109375 -5.035156 26.019531 -9.367188 21.3125 -14.859375 C 16.613281 -20.359375 13.160156 -26.675781 10.953125 -33.8125 C 8.742188 -40.945312 7.640625 -48.476562 7.640625 -56.40625 C 7.640625 -64.21875 8.742188 -71.691406 10.953125 -78.828125 C 13.160156 -85.972656 16.613281 -92.316406 21.3125 -97.859375 C 26.019531 -103.410156 32.140625 -107.800781 39.671875 -111.03125 C 47.203125 -114.257812 56.289062 -115.875 66.9375 -115.875 C 79.96875 -115.875 90.53125 -114.085938 98.625 -110.515625 C 106.726562 -106.953125 112.816406 -101.660156 116.890625 -94.640625 C 120.972656 -87.617188 123.410156 -78.953125 124.203125 -68.640625 L 97.703125 -68.640625 C 96.898438 -77.023438 94.234375 -83.484375 89.703125 -88.015625 C 85.179688 -92.546875 77.707031 -94.8125 67.28125 -94.8125 C 55.957031 -94.8125 47.6875 -91.582031 42.46875 -85.125 C 37.257812 -78.664062 34.65625 -69.09375 34.65625 -56.40625 C 34.65625 -43.945312 37.117188 -34.488281 42.046875 -28.03125 C 46.972656 -21.570312 55.101562 -18.34375 66.4375 -18.34375 C 77.3125 -18.34375 85.125 -20.691406 89.875 -25.390625 C 94.632812 -30.097656 97.351562 -36.867188 98.03125 -45.703125 L 124.71875 -45.703125 C 123.914062 -34.828125 121.503906 -25.789062 117.484375 -18.59375 C 113.460938 -11.40625 107.347656 -6.023438 99.140625 -2.453125 C 90.929688 1.109375 80.140625 2.890625 66.765625 2.890625 Z M 66.765625 2.890625 "/></g></g></g><g fill="#000000" fill-opacity="0.5098"><g transform="translate(827.989534, 372.223891)"><g><path d="M 105.84375 -112.984375 L 105.84375 -92.59375 L 68.640625 -92.59375 L 68.640625 0 L 42.8125 0 L 42.8125 -92.59375 L 5.609375 -92.59375 L 5.609375 -112.984375 Z M 105.84375 -112.984375 "/></g></g></g><g fill="#000000" fill-opacity="1"><g transform="translate(74.642812, 370.834578)"><g><path d="M 66.765625 2.890625 C 56.117188 2.890625 47.054688 1.304688 39.578125 -1.859375 C 32.109375 -5.035156 26.019531 -9.367188 21.3125 -14.859375 C 16.613281 -20.359375 13.160156 -26.675781 10.953125 -33.8125 C 8.742188 -40.945312 7.640625 -48.476562 7.640625 -56.40625 C 7.640625 -64.21875 8.742188 -71.691406 10.953125 -78.828125 C 13.160156 -85.972656 16.613281 -92.316406 21.3125 -97.859375 C 26.019531 -103.410156 32.140625 -107.800781 39.671875 -111.03125 C 47.203125 -114.257812 56.289062 -115.875 66.9375 -115.875 C 79.96875 -115.875 90.53125 -114.085938 98.625 -110.515625 C 106.726562 -106.953125 112.816406 -101.660156 116.890625 -94.640625 C 120.972656 -87.617188 123.410156 -78.953125 124.203125 -68.640625 L 97.703125 -68.640625 C 96.898438 -77.023438 94.234375 -83.484375 89.703125 -88.015625 C 85.179688 -92.546875 77.707031 -94.8125 67.28125 -94.8125 C 55.957031 -94.8125 47.6875 -91.582031 42.46875 -85.125 C 37.257812 -78.664062 34.65625 -69.09375 34.65625 -56.40625 C 34.65625 -43.945312 37.117188 -34.488281 42.046875 -28.03125 C 46.972656 -21.570312 55.101562 -18.34375 66.4375 -18.34375 C 77.3125 -18.34375 85.125 -20.691406 89.875 -25.390625 C 94.632812 -30.097656 97.351562 -36.867188 98.03125 -45.703125 L 124.71875 -45.703125 C 123.914062 -34.828125 121.503906 -25.789062 117.484375 -18.59375 C 113.460938 -11.40625 107.347656 -6.023438 99.140625 -2.453125 C 90.929688 1.109375 80.140625 2.890625 66.765625 2.890625 Z M 66.765625 2.890625 "/></g></g></g><g fill="#000000" fill-opacity="1"><g transform="translate(206.152549, 370.834578)"><g><path d="M 67.28125 2.890625 C 56.40625 2.890625 47.171875 1.273438 39.578125 -1.953125 C 31.992188 -5.179688 25.851562 -9.539062 21.15625 -15.03125 C 16.457031 -20.53125 13.03125 -26.847656 10.875 -33.984375 C 8.71875 -41.117188 7.640625 -48.59375 7.640625 -56.40625 C 7.640625 -64.113281 8.71875 -71.503906 10.875 -78.578125 C 13.03125 -85.660156 16.457031 -92.003906 21.15625 -97.609375 C 25.851562 -103.210938 31.992188 -107.65625 39.578125 -110.9375 C 47.171875 -114.226562 56.40625 -115.875 67.28125 -115.875 C 78.15625 -115.875 87.359375 -114.226562 94.890625 -110.9375 C 102.421875 -107.65625 108.535156 -103.210938 113.234375 -97.609375 C 117.941406 -92.003906 121.367188 -85.660156 123.515625 -78.578125 C 125.671875 -71.503906 126.75 -64.113281 126.75 -56.40625 C 126.75 -48.59375 125.671875 -41.144531 123.515625 -34.0625 C 121.367188 -26.988281 117.941406 -20.675781 113.234375 -15.125 C 108.535156 -9.570312 102.421875 -5.179688 94.890625 -1.953125 C 87.359375 1.273438 78.15625 2.890625 67.28125 2.890625 Z M 34.65625 -56.40625 C 34.65625 -48.25 35.644531 -41.335938 37.625 -35.671875 C 39.613281 -30.015625 42.984375 -25.710938 47.734375 -22.765625 C 52.492188 -19.816406 59.007812 -18.34375 67.28125 -18.34375 C 75.550781 -18.34375 82.0625 -19.816406 86.8125 -22.765625 C 91.570312 -25.710938 94.941406 -30.015625 96.921875 -35.671875 C 98.910156 -41.335938 99.90625 -48.25 99.90625 -56.40625 C 99.90625 -64.789062 98.910156 -71.8125 96.921875 -77.46875 C 94.941406 -83.132812 91.570312 -87.441406 86.8125 -90.390625 C 82.0625 -93.335938 75.550781 -94.8125 67.28125 -94.8125 C 59.007812 -94.8125 52.492188 -93.335938 47.734375 -90.390625 C 42.984375 -87.441406 39.613281 -83.132812 37.625 -77.46875 C 35.644531 -71.8125 34.65625 -64.789062 34.65625 -56.40625 Z M 34.65625 -56.40625 "/></g></g></g><g fill="#000000" fill-opacity="1"><g transform="translate(340.550739, 370.834578)"><g><path d="M 94.46875 -112.984375 L 119.28125 -112.984375 L 119.28125 0 L 76.453125 0 L 41.125 -77.140625 C 39.875 -80.085938 38.707031 -83.003906 37.625 -85.890625 C 36.550781 -88.773438 35.5625 -91.632812 34.65625 -94.46875 L 34.65625 0 L 9.859375 0 L 9.859375 -112.984375 L 52.671875 -112.984375 L 88.34375 -34.65625 C 89.363281 -32.28125 90.410156 -29.703125 91.484375 -26.921875 C 92.566406 -24.148438 93.5625 -21.289062 94.46875 -18.34375 Z M 94.46875 -112.984375 "/></g></g></g><g fill="#000000" fill-opacity="1"><g transform="translate(469.681737, 370.834578)"><g><path d="M 94.46875 -112.984375 L 119.28125 -112.984375 L 119.28125 0 L 76.453125 0 L 41.125 -77.140625 C 39.875 -80.085938 38.707031 -83.003906 37.625 -85.890625 C 36.550781 -88.773438 35.5625 -91.632812 34.65625 -94.46875 L 34.65625 0 L 9.859375 0 L 9.859375 -112.984375 L 52.671875 -112.984375 L 88.34375 -34.65625 C 89.363281 -32.28125 90.410156 -29.703125 91.484375 -26.921875 C 92.566406 -24.148438 93.5625 -21.289062 94.46875 -18.34375 Z M 94.46875 -112.984375 "/></g></g></g><g fill="#000000" fill-opacity="1"><g transform="translate(598.812758, 370.834578)"><g><path d="M 35.6875 -20.5625 L 99.0625 -20.5625 L 99.0625 0 L 9.859375 0 L 9.859375 -112.984375 L 98.546875 -112.984375 L 98.546875 -92.59375 L 35.6875 -92.59375 L 35.6875 -67.28125 L 93.453125 -67.28125 L 93.453125 -48.078125 L 35.6875 -48.078125 Z M 35.6875 -20.5625 "/></g></g></g><g fill="#000000" fill-opacity="1"><g transform="translate(706.365305, 370.834578)"><g><path d="M 66.765625 2.890625 C 56.117188 2.890625 47.054688 1.304688 39.578125 -1.859375 C 32.109375 -5.035156 26.019531 -9.367188 21.3125 -14.859375 C 16.613281 -20.359375 13.160156 -26.675781 10.953125 -33.8125 C 8.742188 -40.945312 7.640625 -48.476562 7.640625 -56.40625 C 7.640625 -64.21875 8.742188 -71.691406 10.953125 -78.828125 C 13.160156 -85.972656 16.613281 -92.316406 21.3125 -97.859375 C 26.019531 -103.410156 32.140625 -107.800781 39.671875 -111.03125 C 47.203125 -114.257812 56.289062 -115.875 66.9375 -115.875 C 79.96875 -115.875 90.53125 -114.085938 98.625 -110.515625 C 106.726562 -106.953125 112.816406 -101.660156 116.890625 -94.640625 C 120.972656 -87.617188 123.410156 -78.953125 124.203125 -68.640625 L 97.703125 -68.640625 C 96.898438 -77.023438 94.234375 -83.484375 89.703125 -88.015625 C 85.179688 -92.546875 77.707031 -94.8125 67.28125 -94.8125 C 55.957031 -94.8125 47.6875 -91.582031 42.46875 -85.125 C 37.257812 -78.664062 34.65625 -69.09375 34.65625 -56.40625 C 34.65625 -43.945312 37.117188 -34.488281 42.046875 -28.03125 C 46.972656 -21.570312 55.101562 -18.34375 66.4375 -18.34375 C 77.3125 -18.34375 85.125 -20.691406 89.875 -25.390625 C 94.632812 -30.097656 97.351562 -36.867188 98.03125 -45.703125 L 124.71875 -45.703125 C 123.914062 -34.828125 121.503906 -25.789062 117.484375 -18.59375 C 113.460938 -11.40625 107.347656 -6.023438 99.140625 -2.453125 C 90.929688 1.109375 80.140625 2.890625 66.765625 2.890625 Z M 66.765625 2.890625 "/></g></g></g><g fill="#000000" fill-opacity="1"><g transform="translate(837.875027, 370.834578)"><g><path d="M 105.84375 -112.984375 L 105.84375 -92.59375 L 68.640625 -92.59375 L 68.640625 0 L 42.8125 0 L 42.8125 -92.59375 L 5.609375 -92.59375 L 5.609375 -112.984375 Z M 105.84375 -112.984375 "/></g></g></g></svg>