<svg xmlns="http://www.w3.org/2000/svg" xmlns:xlink="http://www.w3.org/1999/xlink" width="1366" zoomAndPan="magnify" viewBox="0 0 1024.5 576" height="768" preserveAspectRatio="xMidYMid meet" version="1.0"><defs><g/></defs><g fill="#000000" fill-opacity="0.5098"><g transform="translate(45.742433, 345.741527)"><g><path d="M 87.171875 -93.046875 L 87.171875 -76.25 L 56.53125 -76.25 L 56.53125 0 L 35.265625 0 L 35.265625 -76.25 L 4.625 -76.25 L 4.625 -93.046875 Z M 87.171875 -93.046875 "/></g></g></g><g fill="#000000" fill-opacity="0.5098"><g transform="translate(137.532497, 345.741527)"><g><path d="M 85.5 -22.671875 L 85.5 -16.375 C 85.5 -12.550781 85.679688 -9.425781 86.046875 -7 C 86.421875 -4.570312 86.84375 -2.238281 87.3125 0 L 66.046875 0 C 65.484375 -1.675781 65.035156 -3.820312 64.703125 -6.4375 C 64.378906 -9.050781 64.21875 -12.269531 64.21875 -16.09375 L 64.21875 -20.984375 C 64.21875 -26.210938 62.796875 -30.015625 59.953125 -32.390625 C 57.109375 -34.765625 53.351562 -35.953125 48.6875 -35.953125 L 29.53125 -35.953125 L 29.53125 0 L 8.109375 0 L 8.109375 -93.046875 L 57.234375 -93.046875 C 67.492188 -93.046875 75.1875 -90.691406 80.3125 -85.984375 C 85.445312 -81.273438 88.015625 -75.140625 88.015625 -67.578125 C 88.015625 -61.046875 86.144531 -55.660156 82.40625 -51.421875 C 78.675781 -47.179688 74.0625 -44.453125 68.5625 -43.234375 C 71.726562 -42.484375 74.59375 -41.335938 77.15625 -39.796875 C 79.726562 -38.265625 81.757812 -36.144531 83.25 -33.4375 C 84.75 -30.738281 85.5 -27.148438 85.5 -22.671875 Z M 52.46875 -51.21875 C 57.320312 -51.21875 60.75 -52.359375 62.75 -54.640625 C 64.757812 -56.921875 65.765625 -60.207031 65.765625 -64.5 C 65.765625 -68.414062 64.710938 -71.398438 62.609375 -73.453125 C 60.515625 -75.503906 57.132812 -76.53125 52.46875 -76.53125 L 29.53125 -76.53125 L 29.53125 -51.21875 Z M 52.46875 -51.21875 "/></g></g></g><g fill="#000000" fill-opacity="0.5098"><g transform="translate(231.981122, 345.741527)"><g><path d="M 80.734375 0 L 74.015625 -19.03125 L 32.328125 -19.03125 L 25.609375 0 L 4.203125 0 L 36.9375 -93.046875 L 69.40625 -93.046875 L 102.140625 0 Z M 38.0625 -35.40625 L 68.28125 -35.40625 L 53.171875 -78.359375 Z M 38.0625 -35.40625 "/></g></g></g><g fill="#000000" fill-opacity="0.5098"><g transform="translate(338.183354, 345.741527)"><g><path d="M 77.796875 -93.046875 L 98.21875 -93.046875 L 98.21875 0 L 62.96875 0 L 33.859375 -63.53125 C 32.835938 -65.945312 31.878906 -68.34375 30.984375 -70.71875 C 30.097656 -73.101562 29.285156 -75.460938 28.546875 -77.796875 L 28.546875 0 L 8.109375 0 L 8.109375 -93.046875 L 43.375 -93.046875 L 72.765625 -28.546875 C 73.597656 -26.585938 74.457031 -24.460938 75.34375 -22.171875 C 76.226562 -19.890625 77.046875 -17.535156 77.796875 -15.109375 Z M 77.796875 -93.046875 "/></g></g></g><g fill="#000000" fill-opacity="0.5098"><g transform="translate(444.5255, 345.741527)"><g><path d="M 5.453125 -30.640625 L 26.171875 -30.640625 C 26.441406 -25.703125 28.234375 -21.597656 31.546875 -18.328125 C 34.859375 -15.066406 40.203125 -13.4375 47.578125 -13.4375 C 54.660156 -13.4375 59.554688 -14.554688 62.265625 -16.796875 C 64.972656 -19.035156 66.328125 -22.019531 66.328125 -25.75 C 66.328125 -32.457031 62.175781 -36.375 53.875 -37.5 L 33.296875 -40.15625 C 25.085938 -41.1875 18.742188 -43.9375 14.265625 -48.40625 C 9.796875 -52.882812 7.5625 -58.953125 7.5625 -66.609375 C 7.5625 -75.003906 10.753906 -81.90625 17.140625 -87.3125 C 23.523438 -92.71875 33.25 -95.421875 46.3125 -95.421875 C 55.644531 -95.421875 63.203125 -94.066406 68.984375 -91.359375 C 74.765625 -88.660156 79.078125 -85.046875 81.921875 -80.515625 C 84.765625 -75.992188 86.375 -70.984375 86.75 -65.484375 L 65.90625 -65.484375 C 65.34375 -69.867188 63.472656 -73.34375 60.296875 -75.90625 C 57.128906 -78.46875 52.46875 -79.75 46.3125 -79.75 C 40.625 -79.75 36.3125 -78.675781 33.375 -76.53125 C 30.4375 -74.382812 28.96875 -71.492188 28.96875 -67.859375 C 28.96875 -65.148438 29.828125 -62.863281 31.546875 -61 C 33.273438 -59.132812 36.050781 -57.972656 39.875 -57.515625 L 59.328125 -55.125 C 78.265625 -52.976562 87.734375 -43.882812 87.734375 -27.84375 C 87.734375 -21.78125 86.378906 -16.460938 83.671875 -11.890625 C 80.960938 -7.316406 76.644531 -3.796875 70.71875 -1.328125 C 64.800781 1.140625 56.992188 2.375 47.296875 2.375 C 39.640625 2.375 33.175781 1.46875 27.90625 -0.34375 C 22.644531 -2.164062 18.40625 -4.640625 15.1875 -7.765625 C 11.96875 -10.890625 9.585938 -14.429688 8.046875 -18.390625 C 6.503906 -22.359375 5.640625 -26.441406 5.453125 -30.640625 Z M 5.453125 -30.640625 "/></g></g></g><g fill="#000000" fill-opacity="0.5098"><g transform="translate(537.994634, 345.741527)"><g><path d="M 80.734375 -76.25 L 29.390625 -76.25 L 29.390625 -53.734375 L 75.984375 -53.734375 L 75.984375 -37.921875 L 29.390625 -37.921875 L 29.390625 0 L 8.109375 0 L 8.109375 -93.046875 L 80.734375 -93.046875 Z M 80.734375 -76.25 "/></g></g></g><g fill="#000000" fill-opacity="0.5098"><g transform="translate(624.607526, 345.741527)"><g><path d="M 55.40625 2.375 C 46.457031 2.375 38.859375 1.046875 32.609375 -1.609375 C 26.359375 -4.265625 21.296875 -7.851562 17.421875 -12.375 C 13.546875 -16.90625 10.722656 -22.109375 8.953125 -27.984375 C 7.179688 -33.859375 6.296875 -40.015625 6.296875 -46.453125 C 6.296875 -52.796875 7.179688 -58.878906 8.953125 -64.703125 C 10.722656 -70.535156 13.546875 -75.757812 17.421875 -80.375 C 21.296875 -85 26.359375 -88.660156 32.609375 -91.359375 C 38.859375 -94.066406 46.457031 -95.421875 55.40625 -95.421875 C 64.363281 -95.421875 71.941406 -94.066406 78.140625 -91.359375 C 84.347656 -88.660156 89.382812 -85 93.25 -80.375 C 97.125 -75.757812 99.945312 -70.535156 101.71875 -64.703125 C 103.488281 -58.878906 104.375 -52.796875 104.375 -46.453125 C 104.375 -40.015625 103.488281 -33.878906 101.71875 -28.046875 C 99.945312 -22.222656 97.125 -17.023438 93.25 -12.453125 C 89.382812 -7.878906 84.347656 -4.265625 78.140625 -1.609375 C 71.941406 1.046875 64.363281 2.375 55.40625 2.375 Z M 28.546875 -46.453125 C 28.546875 -39.734375 29.359375 -34.039062 30.984375 -29.375 C 32.617188 -24.71875 35.394531 -21.175781 39.3125 -18.75 C 43.226562 -16.320312 48.59375 -15.109375 55.40625 -15.109375 C 62.21875 -15.109375 67.582031 -16.320312 71.5 -18.75 C 75.414062 -21.175781 78.191406 -24.71875 79.828125 -29.375 C 81.460938 -34.039062 82.28125 -39.734375 82.28125 -46.453125 C 82.28125 -53.359375 81.460938 -59.140625 79.828125 -63.796875 C 78.191406 -68.460938 75.414062 -72.007812 71.5 -74.4375 C 67.582031 -76.863281 62.21875 -78.078125 55.40625 -78.078125 C 48.59375 -78.078125 43.226562 -76.863281 39.3125 -74.4375 C 35.394531 -72.007812 32.617188 -68.460938 30.984375 -63.796875 C 29.359375 -59.140625 28.546875 -53.359375 28.546875 -46.453125 Z M 28.546875 -46.453125 "/></g></g></g><g fill="#000000" fill-opacity="0.5098"><g transform="translate(735.287316, 345.741527)"><g><path d="M 85.5 -22.671875 L 85.5 -16.375 C 85.5 -12.550781 85.679688 -9.425781 86.046875 -7 C 86.421875 -4.570312 86.84375 -2.238281 87.3125 0 L 66.046875 0 C 65.484375 -1.675781 65.035156 -3.820312 64.703125 -6.4375 C 64.378906 -9.050781 64.21875 -12.269531 64.21875 -16.09375 L 64.21875 -20.984375 C 64.21875 -26.210938 62.796875 -30.015625 59.953125 -32.390625 C 57.109375 -34.765625 53.351562 -35.953125 48.6875 -35.953125 L 29.53125 -35.953125 L 29.53125 0 L 8.109375 0 L 8.109375 -93.046875 L 57.234375 -93.046875 C 67.492188 -93.046875 75.1875 -90.691406 80.3125 -85.984375 C 85.445312 -81.273438 88.015625 -75.140625 88.015625 -67.578125 C 88.015625 -61.046875 86.144531 -55.660156 82.40625 -51.421875 C 78.675781 -47.179688 74.0625 -44.453125 68.5625 -43.234375 C 71.726562 -42.484375 74.59375 -41.335938 77.15625 -39.796875 C 79.726562 -38.265625 81.757812 -36.144531 83.25 -33.4375 C 84.75 -30.738281 85.5 -27.148438 85.5 -22.671875 Z M 52.46875 -51.21875 C 57.320312 -51.21875 60.75 -52.359375 62.75 -54.640625 C 64.757812 -56.921875 65.765625 -60.207031 65.765625 -64.5 C 65.765625 -68.414062 64.710938 -71.398438 62.609375 -73.453125 C 60.515625 -75.503906 57.132812 -76.53125 52.46875 -76.53125 L 29.53125 -76.53125 L 29.53125 -51.21875 Z M 52.46875 -51.21875 "/></g></g></g><g fill="#000000" fill-opacity="0.5098"><g transform="translate(829.735907, 345.741527)"><g><path d="M 124.25 -93.046875 L 124.25 0 L 102.984375 0 L 102.984375 -79.0625 L 78.5 0 L 53.875 0 L 29.25 -79.46875 L 29.25 0 L 8.109375 0 L 8.109375 -93.046875 L 44.640625 -93.046875 L 66.46875 -20.984375 L 88.296875 -93.046875 Z M 124.25 -93.046875 "/></g></g></g><g fill="#000000" fill-opacity="1"><g transform="translate(53.883428, 344.597384)"><g><path d="M 87.171875 -93.046875 L 87.171875 -76.25 L 56.53125 -76.25 L 56.53125 0 L 35.265625 0 L 35.265625 -76.25 L 4.625 -76.25 L 4.625 -93.046875 Z M 87.171875 -93.046875 "/></g></g></g><g fill="#000000" fill-opacity="1"><g transform="translate(145.673492, 344.597384)"><g><path d="M 85.5 -22.671875 L 85.5 -16.375 C 85.5 -12.550781 85.679688 -9.425781 86.046875 -7 C 86.421875 -4.570312 86.84375 -2.238281 87.3125 0 L 66.046875 0 C 65.484375 -1.675781 65.035156 -3.820312 64.703125 -6.4375 C 64.378906 -9.050781 64.21875 -12.269531 64.21875 -16.09375 L 64.21875 -20.984375 C 64.21875 -26.210938 62.796875 -30.015625 59.953125 -32.390625 C 57.109375 -34.765625 53.351562 -35.953125 48.6875 -35.953125 L 29.53125 -35.953125 L 29.53125 0 L 8.109375 0 L 8.109375 -93.046875 L 57.234375 -93.046875 C 67.492188 -93.046875 75.1875 -90.691406 80.3125 -85.984375 C 85.445312 -81.273438 88.015625 -75.140625 88.015625 -67.578125 C 88.015625 -61.046875 86.144531 -55.660156 82.40625 -51.421875 C 78.675781 -47.179688 74.0625 -44.453125 68.5625 -43.234375 C 71.726562 -42.484375 74.59375 -41.335938 77.15625 -39.796875 C 79.726562 -38.265625 81.757812 -36.144531 83.25 -33.4375 C 84.75 -30.738281 85.5 -27.148438 85.5 -22.671875 Z M 52.46875 -51.21875 C 57.320312 -51.21875 60.75 -52.359375 62.75 -54.640625 C 64.757812 -56.921875 65.765625 -60.207031 65.765625 -64.5 C 65.765625 -68.414062 64.710938 -71.398438 62.609375 -73.453125 C 60.515625 -75.503906 57.132812 -76.53125 52.46875 -76.53125 L 29.53125 -76.53125 L 29.53125 -51.21875 Z M 52.46875 -51.21875 "/></g></g></g><g fill="#000000" fill-opacity="1"><g transform="translate(240.122118, 344.597384)"><g><path d="M 80.734375 0 L 74.015625 -19.03125 L 32.328125 -19.03125 L 25.609375 0 L 4.203125 0 L 36.9375 -93.046875 L 69.40625 -93.046875 L 102.140625 0 Z M 38.0625 -35.40625 L 68.28125 -35.40625 L 53.171875 -78.359375 Z M 38.0625 -35.40625 "/></g></g></g><g fill="#000000" fill-opacity="1"><g transform="translate(346.324349, 344.597384)"><g><path d="M 77.796875 -93.046875 L 98.21875 -93.046875 L 98.21875 0 L 62.96875 0 L 33.859375 -63.53125 C 32.835938 -65.945312 31.878906 -68.34375 30.984375 -70.71875 C 30.097656 -73.101562 29.285156 -75.460938 28.546875 -77.796875 L 28.546875 0 L 8.109375 0 L 8.109375 -93.046875 L 43.375 -93.046875 L 72.765625 -28.546875 C 73.597656 -26.585938 74.457031 -24.460938 75.34375 -22.171875 C 76.226562 -19.890625 77.046875 -17.535156 77.796875 -15.109375 Z M 77.796875 -93.046875 "/></g></g></g><g fill="#000000" fill-opacity="1"><g transform="translate(452.666495, 344.597384)"><g><path d="M 5.453125 -30.640625 L 26.171875 -30.640625 C 26.441406 -25.703125 28.234375 -21.597656 31.546875 -18.328125 C 34.859375 -15.066406 40.203125 -13.4375 47.578125 -13.4375 C 54.660156 -13.4375 59.554688 -14.554688 62.265625 -16.796875 C 64.972656 -19.035156 66.328125 -22.019531 66.328125 -25.75 C 66.328125 -32.457031 62.175781 -36.375 53.875 -37.5 L 33.296875 -40.15625 C 25.085938 -41.1875 18.742188 -43.9375 14.265625 -48.40625 C 9.796875 -52.882812 7.5625 -58.953125 7.5625 -66.609375 C 7.5625 -75.003906 10.753906 -81.90625 17.140625 -87.3125 C 23.523438 -92.71875 33.25 -95.421875 46.3125 -95.421875 C 55.644531 -95.421875 63.203125 -94.066406 68.984375 -91.359375 C 74.765625 -88.660156 79.078125 -85.046875 81.921875 -80.515625 C 84.765625 -75.992188 86.375 -70.984375 86.75 -65.484375 L 65.90625 -65.484375 C 65.34375 -69.867188 63.472656 -73.34375 60.296875 -75.90625 C 57.128906 -78.46875 52.46875 -79.75 46.3125 -79.75 C 40.625 -79.75 36.3125 -78.675781 33.375 -76.53125 C 30.4375 -74.382812 28.96875 -71.492188 28.96875 -67.859375 C 28.96875 -65.148438 29.828125 -62.863281 31.546875 -61 C 33.273438 -59.132812 36.050781 -57.972656 39.875 -57.515625 L 59.328125 -55.125 C 78.265625 -52.976562 87.734375 -43.882812 87.734375 -27.84375 C 87.734375 -21.78125 86.378906 -16.460938 83.671875 -11.890625 C 80.960938 -7.316406 76.644531 -3.796875 70.71875 -1.328125 C 64.800781 1.140625 56.992188 2.375 47.296875 2.375 C 39.640625 2.375 33.175781 1.46875 27.90625 -0.34375 C 22.644531 -2.164062 18.40625 -4.640625 15.1875 -7.765625 C 11.96875 -10.890625 9.585938 -14.429688 8.046875 -18.390625 C 6.503906 -22.359375 5.640625 -26.441406 5.453125 -30.640625 Z M 5.453125 -30.640625 "/></g></g></g><g fill="#000000" fill-opacity="1"><g transform="translate(546.135629, 344.597384)"><g><path d="M 80.734375 -76.25 L 29.390625 -76.25 L 29.390625 -53.734375 L 75.984375 -53.734375 L 75.984375 -37.921875 L 29.390625 -37.921875 L 29.390625 0 L 8.109375 0 L 8.109375 -93.046875 L 80.734375 -93.046875 Z M 80.734375 -76.25 "/></g></g></g><g fill="#000000" fill-opacity="1"><g transform="translate(632.748522, 344.597384)"><g><path d="M 55.40625 2.375 C 46.457031 2.375 38.859375 1.046875 32.609375 -1.609375 C 26.359375 -4.265625 21.296875 -7.851562 17.421875 -12.375 C 13.546875 -16.90625 10.722656 -22.109375 8.953125 -27.984375 C 7.179688 -33.859375 6.296875 -40.015625 6.296875 -46.453125 C 6.296875 -52.796875 7.179688 -58.878906 8.953125 -64.703125 C 10.722656 -70.535156 13.546875 -75.757812 17.421875 -80.375 C 21.296875 -85 26.359375 -88.660156 32.609375 -91.359375 C 38.859375 -94.066406 46.457031 -95.421875 55.40625 -95.421875 C 64.363281 -95.421875 71.941406 -94.066406 78.140625 -91.359375 C 84.347656 -88.660156 89.382812 -85 93.25 -80.375 C 97.125 -75.757812 99.945312 -70.535156 101.71875 -64.703125 C 103.488281 -58.878906 104.375 -52.796875 104.375 -46.453125 C 104.375 -40.015625 103.488281 -33.878906 101.71875 -28.046875 C 99.945312 -22.222656 97.125 -17.023438 93.25 -12.453125 C 89.382812 -7.878906 84.347656 -4.265625 78.140625 -1.609375 C 71.941406 1.046875 64.363281 2.375 55.40625 2.375 Z M 28.546875 -46.453125 C 28.546875 -39.734375 29.359375 -34.039062 30.984375 -29.375 C 32.617188 -24.71875 35.394531 -21.175781 39.3125 -18.75 C 43.226562 -16.320312 48.59375 -15.109375 55.40625 -15.109375 C 62.21875 -15.109375 67.582031 -16.320312 71.5 -18.75 C 75.414062 -21.175781 78.191406 -24.71875 79.828125 -29.375 C 81.460938 -34.039062 82.28125 -39.734375 82.28125 -46.453125 C 82.28125 -53.359375 81.460938 -59.140625 79.828125 -63.796875 C 78.191406 -68.460938 75.414062 -72.007812 71.5 -74.4375 C 67.582031 -76.863281 62.21875 -78.078125 55.40625 -78.078125 C 48.59375 -78.078125 43.226562 -76.863281 39.3125 -74.4375 C 35.394531 -72.007812 32.617188 -68.460938 30.984375 -63.796875 C 29.359375 -59.140625 28.546875 -53.359375 28.546875 -46.453125 Z M 28.546875 -46.453125 "/></g></g></g><g fill="#000000" fill-opacity="1"><g transform="translate(743.428311, 344.597384)"><g><path d="M 85.5 -22.671875 L 85.5 -16.375 C 85.5 -12.550781 85.679688 -9.425781 86.046875 -7 C 86.421875 -4.570312 86.84375 -2.238281 87.3125 0 L 66.046875 0 C 65.484375 -1.675781 65.035156 -3.820312 64.703125 -6.4375 C 64.378906 -9.050781 64.21875 -12.269531 64.21875 -16.09375 L 64.21875 -20.984375 C 64.21875 -26.210938 62.796875 -30.015625 59.953125 -32.390625 C 57.109375 -34.765625 53.351562 -35.953125 48.6875 -35.953125 L 29.53125 -35.953125 L 29.53125 0 L 8.109375 0 L 8.109375 -93.046875 L 57.234375 -93.046875 C 67.492188 -93.046875 75.1875 -90.691406 80.3125 -85.984375 C 85.445312 -81.273438 88.015625 -75.140625 88.015625 -67.578125 C 88.015625 -61.046875 86.144531 -55.660156 82.40625 -51.421875 C 78.675781 -47.179688 74.0625 -44.453125 68.5625 -43.234375 C 71.726562 -42.484375 74.59375 -41.335938 77.15625 -39.796875 C 79.726562 -38.265625 81.757812 -36.144531 83.25 -33.4375 C 84.75 -30.738281 85.5 -27.148438 85.5 -22.671875 Z M 52.46875 -51.21875 C 57.320312 -51.21875 60.75 -52.359375 62.75 -54.640625 C 64.757812 -56.921875 65.765625 -60.207031 65.765625 -64.5 C 65.765625 -68.414062 64.710938 -71.398438 62.609375 -73.453125 C 60.515625 -75.503906 57.132812 -76.53125 52.46875 -76.53125 L 29.53125 -76.53125 L 29.53125 -51.21875 Z M 52.46875 -51.21875 "/></g></g></g><g fill="#000000" fill-opacity="1"><g transform="translate(837.876902, 344.597384)"><g><path d="M 124.25 -93.046875 L 124.25 0 L 102.984375 0 L 102.984375 -79.0625 L 78.5 0 L 53.875 0 L 29.25 -79.46875 L 29.25 0 L 8.109375 0 L 8.109375 -93.046875 L 44.640625 -93.046875 L 66.46875 -20.984375 L 88.296875 -93.046875 Z M 124.25 -93.046875 "/></g></g></g></svg>